<svg width="16" height="16" viewBox="0 0 16 16" fill="none" xmlns="http://www.w3.org/2000/svg">
<path d="M13.0703 10.2188C14.5938 10.2188 15.8828 11.5078 15.8828 13.0312C15.8828 14.584 14.5938 15.8438 13.0703 15.8438H4.92578C5.30664 15.375 5.83398 14.7012 6.30273 13.9688H13.0703C13.5684 13.9688 14.0078 13.5586 14.0078 13.0312C14.0078 12.5332 13.5684 12.0938 13.0703 12.0938H10.2578C8.70508 12.0938 7.44531 10.834 7.44531 9.28125C7.44531 7.75781 8.70508 6.46875 10.2578 6.46875H11.5762C10.9023 5.53125 10.2578 4.41797 10.2578 3.65625C10.2578 2.10352 11.5176 0.84375 13.0703 0.84375C14.623 0.84375 15.8828 2.10352 15.8828 3.65625C15.8828 5.20898 13.0703 8.34375 13.0703 8.34375H10.2578C9.73047 8.34375 9.32031 8.7832 9.32031 9.28125C9.32031 9.80859 9.73047 10.2188 10.2578 10.2188H13.0703ZM13.0703 2.71875C12.543 2.71875 12.1328 3.1582 12.1328 3.65625C12.1328 4.18359 12.543 4.59375 13.0703 4.59375C13.5684 4.59375 14.0078 4.18359 14.0078 3.65625C14.0078 3.1582 13.5684 2.71875 13.0703 2.71875ZM3.69531 8.34375C5.24805 8.34375 6.50781 9.60352 6.50781 11.1562C6.50781 12.709 3.69531 15.8438 3.69531 15.8438C3.69531 15.8438 0.882812 12.709 0.882812 11.1562C0.882812 9.60352 2.14258 8.34375 3.69531 8.34375ZM3.69531 12.0938C4.19336 12.0938 4.63281 11.6836 4.63281 11.1562C4.63281 10.6582 4.19336 10.2188 3.69531 10.2188C3.16797 10.2188 2.75781 10.6582 2.75781 11.1562C2.75781 11.6836 3.16797 12.0938 3.69531 12.0938Z" fill="#14B9D5"/>
</svg>
