<svg width="16" height="16" viewBox="0 0 16 16" fill="none" xmlns="http://www.w3.org/2000/svg">
<path d="M13.0195 10.2188C14.543 10.2188 15.832 11.5078 15.832 13.0312C15.832 14.584 14.543 15.8438 13.0195 15.8438H4.875C5.25586 15.375 5.7832 14.7012 6.25195 13.9688H13.0195C13.5176 13.9688 13.957 13.5586 13.957 13.0312C13.957 12.5332 13.5176 12.0938 13.0195 12.0938H10.207C8.6543 12.0938 7.39453 10.834 7.39453 9.28125C7.39453 7.75781 8.6543 6.46875 10.207 6.46875H11.5254C10.8516 5.53125 10.207 4.41797 10.207 3.65625C10.207 2.10352 11.4668 0.84375 13.0195 0.84375C14.5723 0.84375 15.832 2.10352 15.832 3.65625C15.832 5.20898 13.0195 8.34375 13.0195 8.34375H10.207C9.67969 8.34375 9.26953 8.7832 9.26953 9.28125C9.26953 9.80859 9.67969 10.2188 10.207 10.2188H13.0195ZM13.0195 2.71875C12.4922 2.71875 12.082 3.1582 12.082 3.65625C12.082 4.18359 12.4922 4.59375 13.0195 4.59375C13.5176 4.59375 13.957 4.18359 13.957 3.65625C13.957 3.1582 13.5176 2.71875 13.0195 2.71875ZM3.64453 8.34375C5.19727 8.34375 6.45703 9.60352 6.45703 11.1562C6.45703 12.709 3.64453 15.8438 3.64453 15.8438C3.64453 15.8438 0.832031 12.709 0.832031 11.1562C0.832031 9.60352 2.0918 8.34375 3.64453 8.34375ZM3.64453 12.0938C4.14258 12.0938 4.58203 11.6836 4.58203 11.1562C4.58203 10.6582 4.14258 10.2188 3.64453 10.2188C3.11719 10.2188 2.70703 10.6582 2.70703 11.1562C2.70703 11.6836 3.11719 12.0938 3.64453 12.0938Z" fill="#BA71DA"/>
</svg>
